<svg width="30" height="30" viewBox="0 0 30 30" fill="none" xmlns="http://www.w3.org/2000/svg">
<path d="M7.12589 13.9718C7.04303 13.4376 7.00003 12.8906 7.00003 12.3334C7.00003 6.44231 11.8071 1.66669 17.7369 1.66669C23.6666 1.66669 28.4737 6.44231 28.4737 12.3334C28.4737 13.6642 28.2285 14.938 27.7803 16.1127C27.6873 16.3567 27.6406 16.4787 27.6195 16.5739C27.5986 16.6683 27.5905 16.7347 27.5882 16.8314C27.5859 16.9288 27.5991 17.0363 27.6257 17.2511L28.1623 21.6114C28.2205 22.0834 28.2495 22.3194 28.171 22.491C28.1022 22.6414 27.9801 22.7607 27.8282 22.826C27.6549 22.9006 27.4195 22.866 26.949 22.7971L22.7021 22.1746C22.4802 22.142 22.3694 22.1258 22.2683 22.1264C22.1685 22.127 22.0994 22.1343 22.0015 22.1548C21.9027 22.1756 21.7765 22.223 21.5241 22.3175C20.3463 22.7587 19.0699 23 17.7369 23C17.1793 23 16.6317 22.9578 16.097 22.8764M9.17552 28.3334C13.1287 28.3334 16.3334 25.0502 16.3334 21C16.3334 16.9499 13.1287 13.6667 9.17552 13.6667C5.22232 13.6667 2.01763 16.9499 2.01763 21C2.01763 21.8142 2.14712 22.5972 2.38615 23.329C2.48719 23.6383 2.53771 23.793 2.55429 23.8986C2.5716 24.009 2.57463 24.0708 2.56819 24.1823C2.56201 24.2891 2.53529 24.4098 2.48187 24.6511L1.66675 28.3334L5.65981 27.788C5.87777 27.7583 5.98675 27.7434 6.08191 27.744C6.18211 27.7447 6.23529 27.7502 6.33356 27.7698C6.42688 27.7883 6.56563 27.8372 6.84311 27.9352C7.5742 28.1932 8.35889 28.3334 9.17552 28.3334Z" stroke="black" stroke-width="2.66667" stroke-linecap="round" stroke-linejoin="round"/>
</svg>
