<svg width="50" height="50" viewBox="0 0 50 50" fill="none" xmlns="http://www.w3.org/2000/svg">
<rect width="50" height="50" rx="15" fill="#3583E5"/>
<path d="M40.8 11.475L40.9 11.55C40.9 11.65 40.6417 11.9167 40.125 12.35C39.0583 13.25 38.0333 13.9083 37.05 14.325C36.0833 14.7417 34.9667 14.9583 33.7 14.975C32.3 15.3583 30.5083 18.4333 28.325 24.2C28.3083 24.2667 28.2917 24.3167 28.275 24.35C28.2583 24.3833 28.2417 24.425 28.225 24.475C28.2083 24.525 28.1917 24.5667 28.175 24.6C28.375 24.6333 28.525 24.65 28.625 24.65C30.2083 24.65 31.3083 24.5583 31.925 24.375C32.625 24.1583 33.2083 23.8 33.675 23.3L33.775 23.375C32.2917 25.275 30.275 26.1583 27.725 26.025C27.4583 26.7583 27.1417 27.4917 26.775 28.225C26.4083 28.9583 25.9167 29.7583 25.3 30.625C24.7 31.4917 24.05 32.25 23.35 32.9C22.65 33.55 21.8083 34.0917 20.825 34.525C19.8583 34.9583 18.85 35.175 17.8 35.175C16.95 35.175 16.275 34.8667 15.775 34.25C15.275 33.6333 15.025 32.8417 15.025 31.875C15.025 30.9083 15.3417 30.0083 15.975 29.175C16.625 28.3417 17.425 27.6583 18.375 27.125C19.3417 26.575 20.3917 26.1083 21.525 25.725C22.6583 25.325 23.7 25.0417 24.65 24.875C25.6167 24.6917 26.4417 24.5917 27.125 24.575C27.7083 22.375 28.2083 20.8083 28.625 19.875C29.6083 17.6583 30.9583 16.0167 32.675 14.95C32.325 14.95 31.65 14.9333 30.65 14.9C28.85 14.85 27.875 14.825 27.725 14.825C26.6583 14.825 25.6917 14.8667 24.825 14.95C23.975 15.0167 23.0833 15.175 22.15 15.425C21.2167 15.675 20.4333 16.0083 19.8 16.425C19.1833 16.8417 18.6667 17.4167 18.25 18.15C17.85 18.8833 17.65 19.7417 17.65 20.725C17.65 21.5083 17.825 22.1333 18.175 22.6C18.5417 23.0667 19.075 23.3 19.775 23.3C20.075 23.3 20.3917 23.225 20.725 23.075C21.075 22.925 21.3667 22.7833 21.6 22.65L21.925 22.425H21.95L22.025 22.525C20.7083 23.8417 19.5583 24.5 18.575 24.5C17.8417 24.5 17.2667 24.25 16.85 23.75C16.4333 23.2333 16.225 22.5667 16.225 21.75C16.225 20.6333 16.4583 19.6333 16.925 18.75C17.4083 17.85 17.9833 17.125 18.65 16.575C19.3167 16.0083 20.2083 15.525 21.325 15.125C22.4417 14.725 23.4417 14.4333 24.325 14.25C25.2083 14.05 26.325 13.9 27.675 13.8C29.025 13.6833 30.0417 13.625 30.725 13.625C31.4083 13.6083 32.3167 13.6 33.45 13.6C33.6 13.6 33.7167 13.6 33.8 13.6C36.4833 13.6 38.4667 13.1583 39.75 12.275C39.8333 12.225 40.1833 11.9583 40.8 11.475ZM16.15 30.5C16.15 31.35 16.4 32.1167 16.9 32.8C17.4 33.4833 18.0333 33.825 18.8 33.825C19.8167 33.825 20.7667 33.5917 21.65 33.125C22.55 32.675 23.325 32.05 23.975 31.25C24.625 30.4667 25.175 29.6417 25.625 28.775C26.0917 27.9083 26.4917 26.975 26.825 25.975C26.0583 25.975 25.1667 26.0417 24.15 26.175C23.1333 26.2917 21.975 26.5 20.675 26.8C19.3917 27.0833 18.3167 27.55 17.45 28.2C16.5833 28.8333 16.15 29.6 16.15 30.5Z" fill="white"/>
</svg>
