<svg width="18" height="21" viewBox="0 0 18 21" fill="none" xmlns="http://www.w3.org/2000/svg">
<path d="M14 8.5V6.5C14 3.73858 11.7614 1.5 9 1.5C6.23858 1.5 4 3.73858 4 6.5V8.5M9 13V15M5.8 19.5H12.2C13.8802 19.5 14.7202 19.5 15.362 19.173C15.9265 18.8854 16.3854 18.4265 16.673 17.862C17 17.2202 17 16.3802 17 14.7V13.3C17 11.6198 17 10.7798 16.673 10.138C16.3854 9.5735 15.9265 9.1146 15.362 8.827C14.7202 8.5 13.8802 8.5 12.2 8.5H5.8C4.11984 8.5 3.27976 8.5 2.63803 8.827C2.07354 9.1146 1.6146 9.5735 1.32698 10.138C1 10.7798 1 11.6198 1 13.3V14.7C1 16.3802 1 17.2202 1.32698 17.862C1.6146 18.4265 2.07354 18.8854 2.63803 19.173C3.27976 19.5 4.11984 19.5 5.8 19.5Z" stroke="black" stroke-width="2" stroke-linecap="round" stroke-linejoin="round"/>
</svg>
