<svg width="28" height="30" viewBox="0 0 28 30" fill="none" xmlns="http://www.w3.org/2000/svg">
<path d="M10.5528 24.854L11.332 26.6067C11.5637 27.1283 11.9417 27.5716 12.4204 27.8827C12.8989 28.1938 13.4576 28.3594 14.0284 28.3592C14.5992 28.3594 15.1577 28.1938 15.6364 27.8827C16.1149 27.5716 16.493 27.1283 16.7246 26.6067L17.5038 24.854C17.7813 24.2322 18.2478 23.7138 18.8372 23.3726C19.4302 23.0304 20.1164 22.8847 20.7972 22.9563L22.7038 23.1592C23.2714 23.2192 23.8442 23.1134 24.3528 22.8543C24.8613 22.5954 25.2838 22.1943 25.569 21.7C25.8546 21.2059 25.9906 20.6396 25.9608 20.0698C25.9308 19.4999 25.736 18.951 25.4002 18.4896L24.2713 16.9384C23.8693 16.382 23.6545 15.7123 23.658 15.0259C23.6578 14.3414 23.8746 13.6744 24.2772 13.1207L25.4061 11.5696C25.742 11.1082 25.9366 10.5593 25.9666 9.98946C25.9966 9.41961 25.8605 8.85329 25.575 8.35923C25.2898 7.86487 24.8673 7.46389 24.3588 7.20487C23.8501 6.94586 23.2774 6.83994 22.7098 6.89998L20.8032 7.10294C20.1222 7.17445 19.4362 7.02873 18.8432 6.68665C18.2526 6.34357 17.786 5.82238 17.5098 5.19775L16.7246 3.44515C16.493 2.92346 16.1149 2.48019 15.6364 2.1691C15.1577 1.85801 14.5992 1.69247 14.0284 1.69257C13.4576 1.69247 12.8989 1.85801 12.4204 2.1691C11.9417 2.48019 11.5637 2.92346 11.332 3.44515L10.5528 5.19775C10.2767 5.82238 9.80993 6.34357 9.21943 6.68665C8.62639 7.02873 7.94032 7.17445 7.25943 7.10294L5.34684 6.89998C4.77928 6.83994 4.20649 6.94586 3.69792 7.20487C3.18936 7.46389 2.76685 7.86487 2.48165 8.35923C2.19608 8.85329 2.06002 9.41961 2.09001 9.98946C2.11998 10.5593 2.3147 11.1082 2.65055 11.5696L3.77943 13.1207C4.18201 13.6744 4.39881 14.3414 4.39869 15.0259C4.39881 15.7104 4.18201 16.3775 3.77943 16.9311L2.65055 18.4822C2.3147 18.9435 2.11998 19.4924 2.09001 20.0623C2.06002 20.6322 2.19608 21.1986 2.48165 21.6926C2.76714 22.1867 3.18969 22.5875 3.69819 22.8464C4.20668 23.1054 4.77932 23.2115 5.34684 23.1518L7.25351 22.9488C7.9344 22.8774 8.62045 23.0231 9.21351 23.3651C9.80621 23.7072 10.2751 24.2286 10.5528 24.854Z" stroke="black" stroke-width="2.66235" stroke-linecap="round" stroke-linejoin="round"/>
<path d="M14.0259 19.0258C16.235 19.0258 18.0259 17.235 18.0259 15.0258C18.0259 12.8166 16.235 11.0258 14.0259 11.0258C11.8167 11.0258 10.0259 12.8166 10.0259 15.0258C10.0259 17.235 11.8167 19.0258 14.0259 19.0258Z" stroke="black" stroke-width="2.66235" stroke-linecap="round" stroke-linejoin="round"/>
</svg>
