<svg width="31" height="30" viewBox="0 0 31 30" fill="none" xmlns="http://www.w3.org/2000/svg">
<path d="M16.4957 18.4193L23.0005 28.2777M13.5054 18.4193L7.00054 28.2777M17.6672 16.1533C17.6672 17.6752 16.4733 18.9089 15.0005 18.9089C13.5278 18.9089 12.3339 17.6752 12.3339 16.1533C12.3339 14.6315 13.5278 13.3978 15.0005 13.3978C16.4733 13.3978 17.6672 14.6315 17.6672 16.1533ZM21.8652 4.21111L6.15283 8.56157C5.79218 8.66142 5.61186 8.71135 5.49291 8.82202C5.38829 8.91936 5.31617 9.04843 5.2869 9.19073C5.25363 9.35251 5.30194 9.53884 5.39858 9.91151L6.57189 14.4363C6.66853 14.809 6.71684 14.9953 6.82394 15.1182C6.91814 15.2264 7.04305 15.3009 7.18076 15.3311C7.33732 15.3655 7.51764 15.3156 7.87829 15.2157L23.5907 10.8653L21.8652 4.21111ZM28.0571 11.055C26.6145 11.4544 25.8932 11.6541 25.267 11.5166C24.7161 11.3956 24.2165 11.0975 23.8397 10.6651C23.4113 10.1734 23.218 9.4281 22.8315 7.93743L22.6244 7.13894C22.2379 5.64827 22.0446 4.90293 22.1777 4.25584C22.2948 3.68664 22.5833 3.17035 23.0018 2.78097C23.4775 2.33831 24.1988 2.1386 25.6414 1.73917C26.0021 1.63932 26.1824 1.58939 26.3389 1.62377C26.4766 1.65402 26.6016 1.72854 26.6958 1.83665C26.8029 1.95956 26.8512 2.14589 26.9478 2.51856L28.8113 9.70505C28.9079 10.0777 28.9563 10.264 28.923 10.4258C28.8937 10.5681 28.8216 10.6972 28.717 10.7945C28.598 10.9052 28.4177 10.9551 28.0571 11.055ZM3.66949 14.9547L5.47255 14.4554C5.8332 14.3556 6.01352 14.3057 6.13246 14.195C6.23709 14.0976 6.3092 13.9686 6.33848 13.8263C6.37175 13.6645 6.32343 13.4782 6.2268 13.1055L5.74367 11.2423C5.64704 10.8697 5.59872 10.6833 5.49162 10.5604C5.39742 10.4523 5.27251 10.3778 5.1348 10.3476C4.97825 10.3132 4.79792 10.3631 4.43728 10.463L2.63422 10.9622C2.27357 11.062 2.09325 11.112 1.9743 11.2226C1.86968 11.32 1.79756 11.449 1.76829 11.5913C1.73502 11.7531 1.78333 11.9395 1.87997 12.3121L2.3631 14.1753C2.45973 14.548 2.50805 14.7343 2.61514 14.8572C2.70935 14.9653 2.83426 15.0398 2.97197 15.0701C3.12852 15.1045 3.30884 15.0545 3.66949 14.9547Z" stroke="black" stroke-width="2.36758" stroke-linecap="round" stroke-linejoin="round"/>
</svg>
